HIERARCHY
ROOT Hips
{
  OFFSET 56.2289 96.6351 -0.591768
  CHANNELS 6 Xposition Yposition Zposition Zrotation Xrotation Yrotation
  JOINT spine
  {
    OFFSET 0 7.96568 0.458067
    CHANNELS 3 Zrotation Xrotation Yrotation
    JOINT spine1
    {
      OFFSET 0 10.2431 0
      CHANNELS 3 Zrotation Xrotation Yrotation
      JOINT spine2
      {
        OFFSET 0 9.81475 0
        CHANNELS 3 Zrotation Xrotation Yrotation
        JOINT Neck
        {
          OFFSET 0 25.1986 1.20138
          CHANNELS 3 Zrotation Xrotation Yrotation
          JOINT Head
          {
            OFFSET 0 7.61315 0
            CHANNELS 3 Zrotation Xrotation Yrotation
            End Site
            {
              OFFSET 0 18.4281 -6.07733
            }
          }
        }
        JOINT RightShoulder
        {
          OFFSET -4.1327 10.5992 -0.575451
          CHANNELS 3 Zrotation Xrotation Yrotation
          JOINT RightArm
          {
            OFFSET 0 13.9018 0
            CHANNELS 3 Zrotation Xrotation Yrotation
            JOINT RightArmRoll
            {
              OFFSET 0 7.01788 0
              CHANNELS 3 Zrotation Xrotation Yrotation
              JOINT RightForeArm
              {
                OFFSET 0 20.4406 0
                CHANNELS 3 Zrotation Xrotation Yrotation
                JOINT RightForeArmRoll
                {
                  OFFSET 0 7.87515 0
                  CHANNELS 3 Zrotation Xrotation Yrotation
                  JOINT RightHand
                  {
                    OFFSET 0 15.8037 0
                    CHANNELS 3 Zrotation Xrotation Yrotation
                    End Site
                    {
                      OFFSET 0 0 0
                    }
                  }
                }
              }
            }
          }
        }
        JOINT LeftShoulder
        {
          OFFSET 4.1327 10.5992 -0.575451
          CHANNELS 3 Zrotation Xrotation Yrotation
          JOINT LeftArm
          {
            OFFSET 0 13.9018 0
            CHANNELS 3 Zrotation Xrotation Yrotation
            JOINT LeftArmRoll
            {
              OFFSET 0 7.01788 0
              CHANNELS 3 Zrotation Xrotation Yrotation
              JOINT LeftForeArm
              {
                OFFSET 0 20.4406 0
                CHANNELS 3 Zrotation Xrotation Yrotation
                JOINT LeftForeArmRoll
                {
                  OFFSET 0 7.87515 0
                  CHANNELS 3 Zrotation Xrotation Yrotation
                  JOINT LeftHand
                  {
                    OFFSET 0 15.8037 0
                    CHANNELS 3 Zrotation Xrotation Yrotation
                    End Site
                    {
                      OFFSET 0 0 0
                    }
                  }
                }
              }
            }
          }
        }
      }
    }
  }
  JOINT RightUpLeg
  {
    OFFSET -7.06048 -1.2947 -1.0861
    CHANNELS 3 Zrotation Xrotation Yrotation
    JOINT RightUpLegRoll
    {
      OFFSET 0 18.5308 0
      CHANNELS 3 Zrotation Xrotation Yrotation
      JOINT RightLeg
      {
        OFFSET 0 -22.9476 0
        CHANNELS 3 Zrotation Xrotation Yrotation
        JOINT RightLegRoll
        {
          OFFSET 0 23.0226 0
          CHANNELS 3 Zrotation Xrotation Yrotation
          JOINT RightFoot
          {
            OFFSET 0 19.1625 0
            CHANNELS 3 Zrotation Xrotation Yrotation
            JOINT RightToeBase
            {
              OFFSET 0 16.0188 0
              CHANNELS 3 Zrotation Xrotation Yrotation
              End Site
              {
                OFFSET 0.00678979 7.75782 -0.894206
              }
            }
          }
        }
      }
    }
  }
  JOINT LeftUpLeg
  {
    OFFSET 7.06048 -1.2947 -1.0861
    CHANNELS 3 Zrotation Xrotation Yrotation
    JOINT LeftUpLegRoll
    {
      OFFSET 0 18.5309 0
      CHANNELS 3 Zrotation Xrotation Yrotation
      JOINT LeftLeg
      {
        OFFSET 0 22.9475 0
        CHANNELS 3 Zrotation Xrotation Yrotation
        JOINT LeftLegRoll
        {
          OFFSET 0 23.2355 0
          CHANNELS 3 Zrotation Xrotation Yrotation
          JOINT LeftFoot
          {
            OFFSET 0 18.9496 0
            CHANNELS 3 Zrotation Xrotation Yrotation
            JOINT LeftToeBase
            {
              OFFSET 0 16.0188 0
              CHANNELS 3 Zrotation Xrotation Yrotation
              End Site
              {
                OFFSET -0.0304289 7.75782 -0.894207
              }
            }
          }
        }
      }
    }
  }
}
MOTION
Frames: 8
Frame Time: 0.00208333
56.0179 96.8594 -1.66878 0.993311 -5.60585 7.36194 0.00607737 -0.589887 -0.208225 0.0163527 2.82302 -0.417331 0.0213355 4.46807 -0.41793 -7.38734 8.47103 0.697389 12.4719 20.4453 -2.02761 68.4884 -3.46856 -2.91598 105.464 16.0972 7.5163 8.94531e-015 0 2.38542e-015 7.14817 13.7575 -1.82595 8.98823e-007 -3.38622e-006 -3.00504 8.02927 -4.95142 0.697652 -64.1773 -5.67143 3.80981 -109.197 17.3537 2.99994 -1.48547e-005 -1.56639e-006 -6.26008e-007 -12.0401 10.5037 1.75187 -2.91419e-006 1.32621e-007 3 -8.02889 -4.95142 -0.697703 177.815 -2.88229 3.68276 180 7.01531e-015 178.855 176.823 6.49369 179.807 4.15996e-007 -3.04926e-006 0.0807246 -18.9384 68.2937 19.7934 8.13649 25.2327 -3.48774 -177.605 -2.49718 0.415294 4.5067e-006 -1.99009e-005 -1.16471 -1.245 -7.67201 0.140167 -4.1201e-007 -1.61971e-006 -0.13165 19.2499 68.6426 -20.0903 -8.13649 25.2327 3.48773 
56.0298 96.849 -1.67502 0.994286 -5.59332 7.35704 0.00607731 -0.590971 -0.207932 0.0162523 2.82085 -0.41674 0.0212268 4.4659 -0.41734 -7.39699 8.47826 0.69604 12.4752 20.4111 -2.02801 68.4956 -3.46761 -2.91604 105.463 16.1101 7.46115 1.72943e-014 -4.77083e-015 5.56597e-015 7.18441 13.8288 -1.83591 8.98823e-007 -3.38622e-006 -3.00504 8.02927 -4.95142 0.697652 -64.1795 -5.66023 3.80367 -109.205 17.3803 3.03923 -1.48547e-005 -1.56639e-006 -6.26008e-007 -12.0603 10.5347 1.75745 -2.91419e-006 1.32621e-007 3 -8.02889 -4.95142 -0.697703 177.814 -2.8746 3.68306 180 7.01531e-015 178.855 176.82 6.47883 179.807 4.15996e-007 -3.04926e-006 0.0807238 -18.9317 68.286 19.7862 8.13649 25.2327 -3.48774 -177.606 -2.47713 0.415001 4.5067e-006 -1.99009e-005 -1.16471 -1.24903 -7.68231 0.139438 -4.1201e-007 -1.61971e-006 -0.132002 19.2551 68.6485 -20.096 -8.13649 25.2327 3.48773 
56.0248 96.8471 -1.70313 0.9953 -5.58055 7.35216 0.00607726 -0.592109 -0.207597 0.0161565 2.81858 -0.416068 0.0211192 4.46362 -0.416667 -7.4071 8.486 0.694418 12.4794 20.3761 -2.02881 68.5022 -3.46671 -2.91608 105.462 16.123 7.40507 -3.37934e-015 -4.77083e-015 -1.59028e-015 7.22151 13.8985 -1.84581 8.98823e-007 -3.38622e-006 -3.00504 8.02927 -4.95142 0.697652 -64.1818 -5.64881 3.79741 -109.212 17.4071 3.07959 -1.48547e-005 -1.56639e-006 -6.26008e-007 -12.0816 10.5651 1.76298 -2.91419e-006 1.32621e-007 3 -8.02889 -4.95142 -0.697703 177.812 -2.86687 3.68332 180 7.01531e-015 178.855 176.816 6.4635 179.807 4.15996e-007 -3.04926e-006 0.0807226 -18.9247 68.2779 19.7786 8.13649 25.2327 -3.48774 -177.607 -2.45646 0.41467 4.5067e-006 -1.99009e-005 -1.16471 -1.25317 -7.69326 0.138698 -4.1201e-007 -1.61971e-006 -0.132389 19.2606 68.6546 -20.1019 -8.13649 25.2327 3.48773 
56.0264 96.8518 -1.69732 0.996342 -5.56762 7.3473 0.00607722 -0.593286 -0.207234 0.0160639 2.81622 -0.415337 0.0210124 4.46127 -0.415937 -7.41751 8.49409 0.692606 12.4841 20.3407 -2.02987 68.5086 -3.46585 -2.91612 105.46 16.1358 7.34833 9.34288e-015 -7.95139e-015 1.59028e-015 7.25921 13.9673 -1.85567 8.98823e-007 -3.38622e-006 -3.00504 8.02927 -4.95142 0.697652 -64.1841 -5.63725 3.79108 -109.22 17.4341 3.12071 -1.48547e-005 -1.56639e-006 -6.26008e-007 -12.1036 10.5952 1.76848 -2.91419e-006 1.32621e-007 3 -8.02889 -4.95142 -0.697703 177.811 -2.85913 3.68355 180 7.01531e-015 178.855 176.812 6.44781 179.807 4.15996e-007 -3.04926e-006 0.080721 -18.9175 68.2695 19.7709 8.13649 25.2327 -3.48774 -177.608 -2.43536 0.414312 4.5067e-006 -1.99009e-005 -1.16471 -1.2574 -7.70466 0.137951 -4.1201e-007 -1.61971e-006 -0.132799 19.2662 68.6609 -20.1079 -8.13649 25.2327 3.48773 
56.032 96.8515 -1.69143 0.997401 -5.5546 7.34245 0.00607719 -0.594485 -0.206854 0.0159732 2.81383 -0.414574 0.0209061 4.45888 -0.415174 -7.4281 8.50238 0.690684 12.4891 20.3049 -2.03109 68.5147 -3.46501 -2.91615 105.459 16.1486 7.2912 3.00165e-014 -6.36111e-015 7.95139e-015 7.29726 14.0354 -1.86551 8.98823e-007 -3.38622e-006 -3.00504 8.02927 -4.95142 0.697652 -64.1865 -5.6256 3.78471 -109.228 17.4612 3.16227 -1.48547e-005 -1.56639e-006 -6.26008e-007 -12.1261 10.6249 1.77396 -2.91419e-006 1.32621e-007 3 -8.02889 -4.95142 -0.697703 177.809 -2.85137 3.68377 180 7.01531e-015 178.855 176.809 6.43194 179.807 4.15996e-007 -3.04926e-006 0.0807194 -18.9102 68.261 19.763 8.13649 25.2327 -3.48774 -177.609 -2.41402 0.413941 4.5067e-006 -1.99009e-005 -1.16471 -1.26167 -7.71632 0.1372 -4.1201e-007 -1.61971e-006 -0.133224 19.2719 68.6672 -20.114 -8.13649 25.2327 3.48773 
56.0293 96.8481 -1.69605 0.998466 -5.54156 7.33761 0.00607718 -0.595689 -0.206469 0.015883 2.81142 -0.413802 0.0207999 4.45647 -0.414402 -7.43873 8.51072 0.688736 12.4942 20.269 -2.03235 68.5208 -3.46417 -2.91619 105.458 16.1614 7.23398 1.78906e-014 -7.95139e-015 4.77083e-015 7.33542 14.1034 -1.87535 8.98823e-007 -3.38622e-006 -3.00504 8.02927 -4.95142 0.697652 -64.1889 -5.61394 3.77832 -109.235 17.4883 3.20394 -1.48547e-005 -1.56639e-006 -6.26008e-007 -12.1486 10.6546 1.77944 -2.91419e-006 1.32621e-007 3 -8.02889 -4.95142 -0.697703 177.807 -2.84361 3.68398 180 7.01531e-015 178.855 176.805 6.41601 179.807 4.15996e-007 -3.04926e-006 0.0807176 -18.9028 68.2524 19.755 8.13649 25.2327 -3.48774 -177.61 -2.39262 0.413565 4.5067e-006 -1.99009e-005 -1.16471 -1.26595 -7.72805 0.136447 -4.1201e-007 -1.61971e-006 -0.133651 19.2776 68.6736 -20.1201 -8.13649 25.2327 3.48773 
56.0234 96.8489 -1.71836 0.999526 -5.52856 7.33276 0.00607719 -0.596882 -0.206093 0.015792 2.80903 -0.413047 0.0206936 4.45408 -0.413648 -7.44927 8.51896 0.686841 12.4992 20.2333 -2.03353 68.527 -3.46333 -2.91622 105.457 16.1742 7.17693 -1.19271e-015 -3.18055e-015 -0 7.37344 14.1716 -1.88521 8.98823e-007 -3.38622e-006 -3.00504 8.02927 -4.95142 0.697652 -64.1913 -5.60231 3.77196 -109.243 17.5153 3.24542 -1.48547e-005 -1.56639e-006 -6.26008e-007 -12.1709 10.6844 1.78493 -2.91419e-006 1.32621e-007 3 -8.02889 -4.95142 -0.697703 177.806 -2.83586 3.6842 180 7.01531e-015 178.855 176.801 6.40017 179.808 4.15996e-007 -3.04926e-006 0.080716 -18.8955 68.2439 19.7471 8.13649 25.2327 -3.48774 -177.611 -2.37134 0.413197 4.5067e-006 -1.99009e-005 -1.16471 -1.27021 -7.73965 0.135697 -4.1201e-007 -1.61971e-006 -0.134072 19.2832 68.6799 -20.1262 -8.13649 25.2327 3.48773 
56.0085 96.8425 -1.72085 1.00057 -5.51568 7.32789 0.00607721 -0.598048 -0.205738 0.0156988 2.8067 -0.412333 0.0205868 4.45175 -0.412934 -7.4596 8.52694 0.685083 12.5037 20.198 -2.03451 68.5335 -3.46245 -2.91626 105.456 16.187 7.12035 -1.39149e-015 -1.59028e-015 7.95139e-016 7.41108 14.2406 -1.89512 8.98823e-007 -3.38622e-006 -3.00504 8.02927 -4.95142 0.697652 -64.1937 -5.59079 3.76565 -109.251 17.5422 3.28638 -1.48547e-005 -1.56639e-006 -6.26008e-007 -12.1928 10.7146 1.79045 -2.91419e-006 1.32621e-007 3 -8.02889 -4.95142 -0.697703 177.804 -2.82812 3.68444 180 7.01531e-015 178.855 176.797 6.38458 179.808 4.15996e-007 -3.04926e-006 0.0807145 -18.8884 68.2356 19.7395 8.13649 25.2327 -3.48774 -177.612 -2.35037 0.412848 4.5067e-006 -1.99009e-005 -1.16471 -1.27441 -7.75092 0.134952 -4.1201e-007 -1.61971e-006 -0.134476 19.2888 68.6861 -20.1321 -8.13649 25.2327 3.48773 
